<?xml version="1.0" encoding="utf-8"?>
<!-- Generator: Adobe Illustrator 26.3.1, SVG Export Plug-In . SVG Version: 6.00 Build 0)  -->
<svg version="1.1" id="Layer_1" xmlns="http://www.w3.org/2000/svg" xmlns:xlink="http://www.w3.org/1999/xlink" x="0px" y="0px"
	 viewBox="0 0 400 400" style="enable-background:new 0 0 400 400;" xml:space="preserve">
<style type="text/css">
	.st0{fill:#FFFFFF;}
</style>
<g>
	<path class="st0" d="M351.34,66.43H176.18c-19.26,0-34.92,15.67-34.92,34.92v54.91h-88.6c-19.26,0-34.92,15.67-34.92,34.92v112.59
		c0,9.34,3.64,18.11,10.23,24.69c6.59,6.6,15.36,10.24,24.69,10.24c1.55,0,2.81,1.26,2.81,2.81l0,58.35l8.54-7.8
		c0.11-0.1,11.58-10.5,31.63-23.28c30.89-19.68,66.64-30.08,103.38-30.08h28.8c19.26,0,34.92-15.67,34.92-34.92v-46.05
		c16.08,5.04,31.4,12.16,45.62,21.22c20.05,12.78,31.52,23.18,31.63,23.28l8.55,7.82v-58.37c0-1.55,1.26-2.81,2.81-2.81
		c9.33,0,18.1-3.64,24.69-10.23c6.6-6.59,10.24-15.36,10.24-24.69V101.35C386.27,82.09,370.6,66.43,351.34,66.43z M252.53,303.78
		c0,13.63-11.09,24.72-24.72,24.72h-28.8c-38.68,0-76.33,10.96-108.86,31.68c-10.64,6.78-18.89,12.86-24.48,17.25v-35.92
		c0-7.18-5.84-13.02-13.02-13.02c-6.6,0-12.81-2.57-17.48-7.25c-4.67-4.66-7.24-10.86-7.24-17.47V191.19
		c0-13.63,11.09-24.72,24.72-24.72h88.6h86.56c13.63,0,24.72,11.09,24.72,24.72v63.6V303.78z M376.06,213.94
		c0,6.61-2.57,12.81-7.25,17.48c-4.66,4.67-10.86,7.24-17.47,7.24c-7.18,0-13.02,5.84-13.02,13.02v35.92
		c-5.6-4.39-13.85-10.47-24.48-17.25c-15.88-10.11-33.05-17.94-51.1-23.29v-42.04h86.77v-6.13h-86.77v-7.7
		c0-10.87-5-20.6-12.81-27.01h99.08v-6.13H238.82c-3.46-1.15-7.16-1.79-11-1.79h-76.35v-54.91c0-13.63,11.09-24.72,24.72-24.72
		h175.16c13.63,0,24.72,11.09,24.72,24.72V213.94z"/>
	<rect x="53.97" y="243.8" class="st0" width="140.37" height="6.13"/>
	<rect x="54.48" y="202.97" class="st0" width="171.51" height="6.13"/>
	<rect x="54.48" y="284.64" class="st0" width="100.05" height="6.13"/>
	<rect x="178.01" y="117.21" class="st0" width="171.51" height="6.13"/>
</g>
</svg>
