<?xml version="1.0" encoding="utf-8"?>
<!-- Generator: Adobe Illustrator 26.3.1, SVG Export Plug-In . SVG Version: 6.00 Build 0)  -->
<svg version="1.1" id="Layer_1" xmlns="http://www.w3.org/2000/svg" xmlns:xlink="http://www.w3.org/1999/xlink" x="0px" y="0px"
	 viewBox="0 0 400 400" style="enable-background:new 0 0 400 400;" xml:space="preserve">
<style type="text/css">
	.st0{fill:#FFFFFF;}
</style>
<path class="st0" d="M377.91,341.1v-17.29h-37.76v-26.58c12.27-1.96,21.68-12.62,21.68-25.44c0-12.55-9.12-23.29-21.38-25.4v-18.95
	h-75.36v-23.3c12.34-2.05,21.52-12.79,21.52-25.41c0-12.62-9.18-23.36-21.52-25.41v-24.13h-77.27v-19.73
	c12.18-2.17,21.23-12.89,21.23-25.37c0-14.21-11.56-25.77-25.77-25.77s-25.77,11.56-25.77,25.77c0,12.98,9.47,23.77,22.19,25.53
	v19.57h-77.27v23.99c-12.69,1.63-22.48,12.65-22.48,25.55c0,12.91,9.79,23.93,22.48,25.56v23.16H27.08v17.26
	c-12.61,1.7-22.33,12.71-22.33,25.54c0,14.21,11.56,25.77,25.77,25.77c14.21,0,25.77-11.56,25.77-25.77c0-12.4-9-23.11-21.09-25.34
	v-9.35h67.25v9.31c-12.22,2.14-21.31,12.87-21.31,25.38c0,12.68,9.21,23.25,21.3,25.37v28.21H25.16v18.82
	c-12.72,1.76-22.19,12.55-22.19,25.53c0,14.21,11.56,25.77,25.77,25.77s25.77-11.56,25.77-25.77c0-12.48-9.06-23.21-21.23-25.37
	v-10.87h69.16v10.61c-13.03,1.36-23.08,12.41-23.08,25.63c0,14.21,11.56,25.77,25.78,25.77c14.21,0,25.77-11.56,25.77-25.77
	c0-12.24-8.5-22.68-20.36-25.2v-11.05h67.25v10.73c-12.64,1.83-22.05,12.62-22.05,25.51c0,14.21,11.56,25.77,25.77,25.77
	c14.21,0,25.77-11.56,25.77-25.77c0-12.55-9.12-23.29-21.38-25.4v-18.95h-75.31v-28.08c12.47-1.8,22.08-12.54,22.08-25.5
	c0-12.93-9.44-23.71-22.12-25.51v-40.68c12.02-2.28,20.96-12.99,20.96-25.32c0-12.33-8.94-23.03-20.96-25.31V137.3h69.16v15.91
	c-12.72,1.76-22.19,12.54-22.19,25.52c0,14.21,11.56,25.78,25.77,25.78s25.77-11.56,25.77-25.78c0-12.47-9.06-23.2-21.23-25.36
	V137.3h69.16v15.95c-12.57,1.89-21.91,12.66-21.91,25.48c0,12.83,9.35,23.6,21.91,25.49v23.23h-77.27v18.82
	c-12.72,1.76-22.19,12.55-22.19,25.53c0,14.21,11.56,25.77,25.77,25.77s25.77-11.56,25.77-25.77c0-12.48-9.06-23.21-21.23-25.37
	v-10.87h69.16v10.61c-13.03,1.36-23.08,12.41-23.08,25.63c0,14.21,11.56,25.77,25.78,25.77c14.21,0,25.77-11.56,25.77-25.77
	c0-12.24-8.5-22.68-20.36-25.2v-11.05h67.25v10.73c-12.64,1.83-22.05,12.62-22.05,25.51c0,12.82,9.41,23.48,21.68,25.44v26.58
	h-37.55v17.26c-12.61,1.7-22.33,12.71-22.33,25.54c0,14.21,11.56,25.77,25.77,25.77s25.77-11.56,25.77-25.77
	c0-12.4-9-23.11-21.09-25.34v-9.35h67.25v9.31c-12.22,2.14-21.31,12.87-21.31,25.38c0,14.21,11.56,25.77,25.77,25.77
	c14.21,0,25.78-11.56,25.78-25.77C400.03,353.68,390.59,342.9,377.91,341.1z M48.17,270.24c0,9.74-7.92,17.66-17.66,17.66
	c-9.74,0-17.66-7.92-17.66-17.66c0-9.74,7.92-17.66,17.66-17.66C40.25,252.58,48.17,260.5,48.17,270.24z M46.4,368.17
	c0,9.74-7.92,17.66-17.66,17.66s-17.66-7.92-17.66-17.66c0-9.74,7.92-17.67,17.66-17.67S46.4,358.42,46.4,368.17z M199.17,368.17
	c0,9.74-7.92,17.66-17.66,17.66c-9.74,0-17.66-7.92-17.66-17.66c0-9.74,7.92-17.67,17.66-17.67
	C191.25,350.5,199.17,358.42,199.17,368.17z M122.79,368.17c0,9.74-7.92,17.66-17.66,17.66c-9.74,0-17.67-7.92-17.67-17.66
	c0-9.74,7.93-17.67,17.67-17.67C114.87,350.5,122.79,358.42,122.79,368.17z M124.56,270.24c0,9.74-7.93,17.66-17.67,17.66
	c-9.74,0-17.66-7.92-17.66-17.66c0-9.74,7.92-17.66,17.66-17.66C116.64,252.58,124.56,260.5,124.56,270.24z M123.4,178.73
	c0,8.43-6,15.72-14.27,17.34c-1.8,0.35-3.61,0.42-5.36,0.22c-8.95-1-15.69-8.55-15.69-17.56c0-9.01,6.75-16.55,15.69-17.55
	c0.66-0.07,1.31-0.11,1.98-0.11c1.12,0,2.26,0.11,3.39,0.33C117.4,163.01,123.4,170.3,123.4,178.73z M200.95,178.73
	c0,9.74-7.92,17.67-17.66,17.67s-17.66-7.93-17.66-17.67c0-9.74,7.92-17.66,17.66-17.66S200.95,168.99,200.95,178.73z
	 M183.29,101.75c-9.74,0-17.66-7.93-17.66-17.67c0-9.74,7.92-17.66,17.66-17.66s17.66,7.92,17.66,17.66
	C200.95,93.83,193.02,101.75,183.29,101.75z M200.95,271.8c0,9.74-7.92,17.66-17.66,17.66s-17.66-7.92-17.66-17.66
	c0-9.74,7.92-17.67,17.66-17.67S200.95,262.05,200.95,271.8z M277.34,271.8c0,9.74-7.92,17.66-17.66,17.66
	c-9.74,0-17.67-7.92-17.67-17.66c0-9.74,7.93-17.67,17.67-17.67C269.42,254.13,277.34,262.05,277.34,271.8z M264.58,195.99
	c-0.28,0.06-0.57,0.11-0.89,0.16c-0.17,0.03-0.34,0.05-0.51,0.08l-0.32,0.04c-0.15,0.02-0.31,0.04-0.53,0.05
	c-0.69,0.07-1.47,0.09-2.42,0.04c-0.24-0.01-0.47-0.03-0.64-0.04c-0.15-0.02-0.31-0.04-0.37-0.04l-0.48-0.06l-0.06-0.01
	c-0.08-0.01-0.15-0.02-0.23-0.03l-0.6-0.1c-0.2-0.03-0.39-0.07-0.61-0.13l-2.02-0.59c-0.11-0.04-0.23-0.08-0.29-0.1l-0.24-0.09
	c-0.11-0.05-0.21-0.09-0.32-0.14l-0.26-0.11c-0.24-0.11-0.47-0.21-0.71-0.33c-0.72-0.36-1.39-0.74-2.1-1.22
	c-0.06-0.04-0.12-0.09-0.18-0.12c-0.05-0.03-0.09-0.07-0.19-0.13c-0.28-0.19-0.53-0.39-0.84-0.64c-0.12-0.09-0.24-0.19-0.42-0.35
	c-0.09-0.08-0.19-0.16-0.29-0.25c-0.25-0.22-0.5-0.46-0.79-0.76c-0.14-0.13-0.27-0.27-0.43-0.45c-0.25-0.26-0.47-0.52-0.68-0.78
	c-0.16-0.19-0.31-0.38-0.47-0.61c-0.12-0.15-0.24-0.31-0.34-0.47c-0.09-0.13-0.17-0.26-0.29-0.45c-0.1-0.15-0.21-0.31-0.32-0.5
	c-0.15-0.23-0.29-0.48-0.41-0.71l-0.1-0.18c-0.07-0.12-0.13-0.25-0.24-0.46c-0.04-0.07-0.07-0.14-0.14-0.29
	c-0.08-0.16-0.15-0.31-0.24-0.52c-0.1-0.23-0.2-0.47-0.29-0.7l-0.05-0.13c-0.04-0.11-0.09-0.22-0.12-0.33l-0.05-0.14
	c-0.02-0.04-0.03-0.08-0.04-0.12l-0.41-1.43c-0.01-0.04-0.02-0.09-0.03-0.13l-0.19-0.94c-0.03-0.13-0.05-0.27-0.06-0.41l-0.02-0.11
	c-0.02-0.09-0.03-0.19-0.04-0.31c-0.01-0.07-0.02-0.13-0.04-0.29l-0.03-0.31c-0.03-0.24-0.04-0.48-0.05-0.74
	c-0.02-0.3-0.03-0.6-0.03-0.9c0-0.3,0.01-0.59,0.03-0.92c0.01-0.24,0.03-0.47,0.05-0.7l0.07-0.62c0.01-0.12,0.03-0.24,0.05-0.35
	l0.04-0.24c0.01-0.09,0.03-0.17,0.06-0.34c0.01-0.06,0.03-0.12,0.04-0.22c0.01-0.05,0.02-0.11,0.03-0.14l0.2-0.87
	c0.03-0.11,0.06-0.22,0.09-0.33l0.06-0.19c0.05-0.16,0.1-0.32,0.14-0.45l0.14-0.41c0.03-0.11,0.07-0.22,0.12-0.34l0.05-0.12
	c0.09-0.23,0.18-0.47,0.29-0.72c0.07-0.16,0.13-0.32,0.23-0.51c0.06-0.13,0.12-0.26,0.24-0.46c0.34-0.69,0.76-1.39,1.24-2.09
	c0.11-0.16,0.23-0.32,0.37-0.5c0.14-0.19,0.29-0.38,0.45-0.58c0.22-0.26,0.44-0.52,0.71-0.81c0.13-0.14,0.26-0.28,0.46-0.48
	c0.07-0.08,0.14-0.14,0.28-0.28c0.14-0.15,0.29-0.28,0.46-0.43c0.11-0.1,0.23-0.21,0.41-0.36c0.1-0.09,0.21-0.18,0.37-0.3
	c0.12-0.1,0.23-0.18,0.35-0.27l0.12-0.09c0.22-0.17,0.44-0.33,0.66-0.48c0.33-0.22,0.67-0.43,0.96-0.6
	c0.12-0.06,0.23-0.13,0.42-0.24c0.05-0.03,0.1-0.05,0.21-0.11c0.15-0.09,0.31-0.17,0.54-0.28c0.1-0.05,0.19-0.1,0.34-0.16l0.34-0.15
	c0.16-0.07,0.33-0.14,0.49-0.2l0.14-0.06c0.06-0.03,0.13-0.06,0.13-0.06c0.12-0.04,0.24-0.08,0.36-0.13l0.47-0.17
	c0.17-0.05,0.33-0.11,0.55-0.17l0.16-0.04c0.1-0.03,0.21-0.06,0.32-0.09l0.53-0.12c0.2-0.05,0.4-0.09,0.68-0.14l0.3-0.06l0.41-0.01
	l0.22-0.08c0.08-0.01,0.17-0.03,0.26-0.04l0.41-0.04c0.23-0.03,0.46-0.04,0.72-0.05c0.3-0.02,0.6-0.03,0.9-0.03
	c0.57,0,1.04,0.02,1.55,0.07c0.15,0.01,0.3,0.02,0.46,0.05l0.34,0.04c0.16,0.02,0.33,0.05,0.51,0.08c0.59,0.1,1.18,0.22,1.73,0.37
	l0.58,0.16c0.47,0.14,0.96,0.32,1.45,0.52l0.18,0.07c0.18,0.08,0.36,0.15,0.54,0.23c0.24,0.11,0.47,0.23,0.71,0.35
	c0.17,0.08,0.33,0.18,0.53,0.28l0.18,0.09c0.12,0.07,0.25,0.15,0.41,0.25c0.05,0.03,0.11,0.07,0.22,0.14
	c0.03,0.02,0.05,0.03,0.08,0.05l0,0.55h0.82c0.15,0.11,0.31,0.23,0.49,0.36l0.14,0.12c0.19,0.14,0.37,0.29,0.55,0.45l0.34,0.31h0.02
	c0.03,0.03,0.07,0.07,0.11,0.11c0.16,0.15,0.33,0.3,0.49,0.46l0.15,0.15c0.17,0.16,0.32,0.32,0.49,0.52c0.18,0.2,0.36,0.4,0.49,0.55
	l0.13,0.16c0.15,0.18,0.3,0.37,0.46,0.61c0.17,0.22,0.33,0.45,0.5,0.7c0.15,0.22,0.3,0.46,0.46,0.72c0.15,0.23,0.29,0.48,0.42,0.73
	c0.1,0.18,0.2,0.37,0.3,0.56l0.09,0.18c0.12,0.26,0.24,0.51,0.36,0.8c0.08,0.18,0.15,0.35,0.22,0.53l0.1,0.25
	c0.04,0.12,0.04,0.12,0.04,0.12l0.38,1.22c0.07,0.24,0.14,0.47,0.2,0.77c0.05,0.19,0.09,0.39,0.12,0.59l0.06,0.38l0.01,0.01
	c0.03,0.15,0.06,0.29,0.08,0.44l0.01,0.1c0.02,0.16,0.05,0.31,0.06,0.46l0.02,0.22c0.03,0.27,0.05,0.54,0.06,0.85
	c0.02,0.29,0.03,0.59,0.03,0.89c0,0.3-0.01,0.6-0.03,0.93c-0.01,0.27-0.03,0.53-0.06,0.84c-0.03,0.22-0.05,0.44-0.09,0.7
	c-0.03,0.22-0.06,0.42-0.1,0.65l-0.05,0.27c0,0,0,0.01,0,0.01l-0.02,0.1c-0.03,0.12-0.06,0.25-0.1,0.44l-0.06,0.25
	c-0.04,0.18-0.1,0.38-0.16,0.59c-0.05,0.2-0.12,0.41-0.19,0.64c-0.14,0.45-0.31,0.93-0.54,1.47c-0.11,0.26-0.22,0.51-0.34,0.77
	c-0.13,0.26-0.26,0.51-0.4,0.77c-0.13,0.24-0.27,0.48-0.43,0.75c-0.14,0.23-0.28,0.46-0.46,0.72c-0.15,0.22-0.31,0.45-0.51,0.71
	c-0.13,0.19-0.28,0.38-0.38,0.5c-0.06,0.06-0.12,0.14-0.14,0.16c-0.17,0.2-0.35,0.4-0.56,0.63c-0.15,0.17-0.3,0.33-0.5,0.52
	c-0.41,0.42-0.86,0.83-1.32,1.21c-0.21,0.17-0.43,0.34-0.7,0.54c-0.21,0.17-0.43,0.32-0.67,0.48c-0.21,0.15-0.44,0.29-0.66,0.42
	l-0.17,0.1c-0.24,0.14-0.49,0.29-0.75,0.42l-0.51,0.27c-0.13,0.07-0.26,0.13-0.43,0.2c-0.31,0.14-0.62,0.28-1.03,0.44l-1.33,0.45
	c-0.11,0.03-0.22,0.07-0.38,0.11C265.15,195.86,264.87,195.93,264.58,195.99z M318.41,271.8c0-9.74,7.92-17.67,17.66-17.67
	c9.74,0,17.66,7.93,17.66,17.67c0,9.74-7.92,17.66-17.66,17.66C326.33,289.45,318.41,281.53,318.41,271.8z M315.53,366.61
	c0,9.74-7.92,17.66-17.66,17.66c-9.74,0-17.66-7.92-17.66-17.66c0-9.74,7.92-17.66,17.66-17.66
	C307.61,348.95,315.53,356.87,315.53,366.61z M374.25,384.27c-9.74,0-17.66-7.92-17.66-17.66c0-9.74,7.92-17.66,17.66-17.66
	c9.74,0,17.67,7.92,17.67,17.66C391.92,376.35,383.99,384.27,374.25,384.27z"/>
</svg>
