<?xml version="1.0" encoding="utf-8"?>
<!-- Generator: Adobe Illustrator 26.3.1, SVG Export Plug-In . SVG Version: 6.00 Build 0)  -->
<svg version="1.1" id="Layer_1" xmlns="http://www.w3.org/2000/svg" xmlns:xlink="http://www.w3.org/1999/xlink" x="0px" y="0px"
	 viewBox="0 0 400 400" style="enable-background:new 0 0 400 400;" xml:space="preserve">
<style type="text/css">
	.st0{fill:#FFFFFF;}
</style>
<g>
	<path class="st0" d="M201,45.48c-96.64,0-175.26,78.62-175.26,175.26C25.74,317.38,104.36,396,201,396
		c96.64,0,175.26-78.62,175.26-175.26C376.26,124.1,297.64,45.48,201,45.48z M201,387.45c-91.93,0-166.71-74.79-166.71-166.71
		S109.07,54.02,201,54.02s166.71,74.79,166.71,166.71S292.93,387.45,201,387.45z"/>
	<path class="st0" d="M201,72.41c-81.79,0-148.33,66.54-148.33,148.33c0,81.79,66.54,148.33,148.33,148.33
		c81.79,0,148.33-66.54,148.33-148.33C349.33,138.95,282.79,72.41,201,72.41z M201,360.52c-77.08,0-139.78-62.71-139.78-139.78
		S123.92,80.96,201,80.96s139.78,62.71,139.78,139.78S278.08,360.52,201,360.52z"/>
	<rect x="195.87" y="92.5" class="st0" width="10.26" height="10.26"/>
	<rect x="278.37" y="141.23" class="st0" width="10.26" height="10.26"/>
	<rect x="268.11" y="306.23" class="st0" width="10.26" height="10.26"/>
	<rect x="111.66" y="136.1" class="st0" width="10.26" height="10.26"/>
	<rect x="111.66" y="301.1" class="st0" width="10.26" height="10.26"/>
	<rect x="195.87" y="340.43" class="st0" width="10.26" height="10.26"/>
	<rect x="323.68" y="215.61" class="st0" width="10.26" height="10.26"/>
	<rect x="69.77" y="215.61" class="st0" width="10.26" height="10.26"/>
	<path class="st0" d="M205.27,205.52v-83.1h-8.55v83.1c-5.29,1.49-9.45,5.65-10.94,10.94h-63.87v8.55h63.87
		c1.87,6.65,7.97,11.54,15.21,11.54c8.72,0,15.82-7.09,15.82-15.82C216.82,213.5,211.92,207.4,205.27,205.52z"/>
</g>
</svg>
